<svg xmlns="http://www.w3.org/2000/svg" xmlns:xlink="http://www.w3.org/1999/xlink" width="1024" zoomAndPan="magnify" viewBox="0 0 768 767.999994" height="1024" preserveAspectRatio="xMidYMid meet" version="1.0"><defs><clipPath id="106c23eafe"><path d="M 307.050781 291.039062 L 455.550781 291.039062 L 455.550781 495.789062 L 307.050781 495.789062 Z M 307.050781 291.039062 " clip-rule="nonzero"/></clipPath><clipPath id="b6097e3bc2"><path d="M 407.488281 296 L 541 296 L 541 428.789062 L 407.488281 428.789062 Z M 407.488281 296 " clip-rule="nonzero"/></clipPath><clipPath id="207cc9ec2e"><path d="M 434 288.539062 L 543.238281 288.539062 L 543.238281 401 L 434 401 Z M 434 288.539062 " clip-rule="nonzero"/></clipPath></defs><g clip-path="url(#106c23eafe)"><path fill="#3d3838" d="M 455.550781 306.789062 C 455.550781 298.09375 448.511719 291.042969 439.824219 291.042969 L 322.777344 291.042969 C 314.089844 291.042969 307.050781 298.09375 307.050781 306.789062 L 307.050781 480.035156 C 307.050781 488.734375 314.089844 495.785156 322.777344 495.785156 L 439.828125 495.785156 C 448.511719 495.785156 455.550781 488.734375 455.550781 480.035156 Z M 434.03125 448.371094 L 326.421875 448.371094 L 326.421875 437.59375 L 434.03125 437.59375 Z M 434.03125 418.199219 L 326.421875 418.199219 L 326.421875 409.578125 L 434.03125 409.578125 Z M 434.03125 390.179688 L 326.421875 390.179688 L 326.421875 379.40625 L 434.03125 379.40625 Z M 434.03125 360.007812 L 326.421875 360.007812 L 326.421875 349.234375 L 434.03125 349.234375 Z M 434.03125 329.835938 L 326.421875 329.835938 L 326.421875 319.0625 L 434.03125 319.0625 Z M 434.03125 329.835938 " fill-opacity="1" fill-rule="nonzero"/></g><g clip-path="url(#b6097e3bc2)"><path fill="#008037" d="M 473.789062 296.359375 C 437.242188 296.359375 407.488281 326.0625 407.488281 362.542969 C 407.488281 399.027344 437.242188 428.730469 473.789062 428.730469 C 510.335938 428.730469 540.089844 399.027344 540.089844 362.542969 C 540.089844 346.773438 534.746094 332.667969 525.664062 321.113281 L 519.421875 328.5 C 527.339844 338.226562 530.4375 349.027344 530.4375 362.542969 C 530.4375 393.808594 505.109375 419.078125 473.789062 419.078125 C 442.46875 419.078125 417.140625 393.808594 417.140625 362.542969 C 417.140625 331.28125 442.46875 305.996094 473.789062 305.996094 C 483.714844 305.996094 491.136719 307.421875 499.238281 311.886719 L 505.171875 304.113281 C 495.683594 298.882812 485.371094 296.355469 473.789062 296.355469 Z M 473.789062 296.359375 " fill-opacity="1" fill-rule="evenodd"/></g><g clip-path="url(#207cc9ec2e)"><path fill="#008037" d="M 449.25 353.839844 C 451.925781 353.839844 453.945312 356.03125 455.316406 360.410156 C 458.058594 368.621094 460.011719 372.726562 461.179688 372.726562 C 462.070312 372.726562 462.996094 372.042969 463.957031 370.675781 C 483.21875 339.878906 501.042969 314.96875 517.425781 295.945312 C 521.675781 291.015625 528.429688 288.554688 537.683594 288.554688 C 539.878906 288.554688 541.351562 288.757812 542.105469 289.167969 C 542.859375 289.578125 543.238281 290.09375 543.238281 290.707031 C 543.238281 291.667969 542.105469 293.550781 539.84375 296.355469 C 513.382812 328.109375 488.839844 361.640625 466.21875 396.953125 C 464.640625 399.417969 461.417969 400.648438 456.550781 400.648438 C 451.617188 400.648438 448.703125 400.445312 447.8125 400.035156 C 445.480469 399.007812 442.738281 393.773438 439.585938 384.328125 C 436.019531 373.855469 434.238281 367.289062 434.238281 364.617188 C 434.238281 361.746094 436.636719 358.972656 441.433594 356.304688 C 444.382812 354.660156 446.988281 353.839844 449.25 353.839844 " fill-opacity="1" fill-rule="nonzero"/></g></svg>